<?xml version="1.0"?>
<svg xmlns="http://www.w3.org/2000/svg" viewBox="0 0 64 64" width="512" height="512"><g id="comfortable"><path d="M45,49a4,4,0,1,0,4,4A4,4,0,0,0,45,49Zm0,6a2,2,0,1,1,2-2A2,2,0,0,1,45,55Z"/><path d="M46,31v2a5.006,5.006,0,0,1,5,5h2A7.008,7.008,0,0,0,46,31Z"/><path d="M25.03,40.976l1.987.232A2.5,2.5,0,0,1,29.5,39V37A4.5,4.5,0,0,0,25.03,40.976Z"/><rect x="20" y="9" width="2" height="2"/><rect x="18" y="30" width="2" height="2"/><path d="M13,22H5a3.009,3.009,0,0,0-3,3V41a3.009,3.009,0,0,0,3,3h8a3.009,3.009,0,0,0,3-3V25A3.009,3.009,0,0,0,13,22Zm-2,2a1,1,0,0,1-1,1H8a1,1,0,0,1-1-1Zm3,17a1,1,0,0,1-1,1H5a1,1,0,0,1-1-1V25a1,1,0,0,1,1-1,3.009,3.009,0,0,0,3,3h2a3.009,3.009,0,0,0,3-3,1,1,0,0,1,1,1Z"/><rect x="42" y="9" width="2" height="2"/><rect x="60" y="21" width="2" height="2"/><path d="M17,2H3A1,1,0,0,0,2,3V17a1,1,0,0,0,1,1H17a1,1,0,0,0,1-1V3A1,1,0,0,0,17,2ZM16,16H4V4H16Z"/><path d="M14.447,9.105l-6-3A1,1,0,0,0,7,7v6a1,1,0,0,0,1.447.895l6-3a1,1,0,0,0,0-1.79ZM9,11.382V8.618L11.764,10Z"/><path d="M54,2a8,8,0,1,0,8,8A8.011,8.011,0,0,0,54,2Zm4,12.46V7H56v8.65a6.671,6.671,0,0,1-1,.26V9H53v6.91a6.671,6.671,0,0,1-1-.26V11H50v3.46a6,6,0,1,1,8,0Z"/><path d="M56,43h-.21A10.792,10.792,0,0,0,57,38,11.007,11.007,0,0,0,46,27c-.34,0-.67.02-1,.05V23H58V21H44a1,1,0,0,0-1,1v5.41a10.894,10.894,0,0,0-5,3.02V11h2V9H37a1,1,0,0,0-1,1V33.41a10.383,10.383,0,0,0-.67,1.92A8.648,8.648,0,0,0,33,33.77V10a1,1,0,0,0-1-1H24v2h7V33.14a8.3,8.3,0,0,0-4,.24V31a1,1,0,0,0-1-1H22v2h3v2.3a8.5,8.5,0,0,0-4,7.2,3.507,3.507,0,0,0,.4,1.53,6,6,0,0,0-4.83,3.48,6.811,6.811,0,0,0-2.86,2.16A6.262,6.262,0,0,0,11,48a6,6,0,0,0-6,6v.13A4,4,0,0,0,6,62H26a4,4,0,0,0,4-4,4.6,4.6,0,0,0-1.88-3H36a1,1,0,0,0,.76.97l.67.17-.36.59a1,1,0,0,0,.15,1.22l2.83,2.83a1,1,0,0,0,1.22.15l.59-.36.17.67A1,1,0,0,0,43,62h4a1,1,0,0,0,.97-.76l.17-.67.59.36a1,1,0,0,0,1.22-.15l2.83-2.83a1,1,0,0,0,.15-1.22l-.36-.59.67-.17A1,1,0,0,0,54,55h2a6,6,0,0,0,0-12ZM26,60H6a2,2,0,0,1,0-4,1,1,0,0,0,1-1V54a4,4,0,0,1,4-4,4.4,4.4,0,0,1,2.42.82,1,1,0,0,0,.79.16,1.055,1.055,0,0,0,.65-.46,5.51,5.51,0,0,1,1.15-1.37A6,6,0,0,0,22,55h2.71C26.43,56.05,28,57.47,28,58A2.006,2.006,0,0,1,26,60Zm26-5.78-1.22.3a1.007,1.007,0,0,0-.68.59,1.019,1.019,0,0,0,.06.9l.65,1.08-1.72,1.72-1.08-.64a.989.989,0,0,0-.9-.07,1.007,1.007,0,0,0-.59.68L46.22,60H43.78l-.3-1.22a1.007,1.007,0,0,0-.59-.68.989.989,0,0,0-.9.07l-1.08.64-1.72-1.72.65-1.08a1.019,1.019,0,0,0,.06-.9,1.007,1.007,0,0,0-.68-.59L38,54.22V51.78l1.22-.3a1.007,1.007,0,0,0,.68-.59,1.019,1.019,0,0,0-.06-.9l-.65-1.08,1.72-1.72,1.08.64a.987.987,0,0,0,.9.07,1.007,1.007,0,0,0,.59-.68l.3-1.22h2.44l.3,1.22a1.007,1.007,0,0,0,.59.68.989.989,0,0,0,.9-.07l1.08-.64,1.72,1.72-.65,1.08a1.019,1.019,0,0,0-.06.9,1.007,1.007,0,0,0,.68.59l1.22.3ZM56,53H54V51a1,1,0,0,0-.76-.97l-.67-.17.36-.59a1,1,0,0,0-.15-1.22l-2.83-2.83a1.012,1.012,0,0,0-1.22-.15l-.59.36-.17-.67A1,1,0,0,0,47,44H43a1,1,0,0,0-.97.76l-.17.67-.59-.36a1.014,1.014,0,0,0-1.22.15l-2.83,2.83a1,1,0,0,0-.15,1.22l.36.59-.67.17A1,1,0,0,0,36,51v2H22a4,4,0,0,1,0-8h1a1.014,1.014,0,0,0,.82-.42,1.035,1.035,0,0,0,.12-.92,6.909,6.909,0,0,0-.47-.99A3.068,3.068,0,0,1,23,41.5a6.492,6.492,0,0,1,12.14-3.21,1.016,1.016,0,0,0,1.12.47,1,1,0,0,0,.75-.95A9,9,0,1,1,53.19,43.4a1,1,0,0,0,.8,1.6H56a4,4,0,0,1,0,8Z"/></g></svg>
